<svg width="129" height="72" viewBox="0 0 129 72" fill="none" xmlns="http://www.w3.org/2000/svg">
<g clip-path="url(#clip0_4954_8974)">
<path d="M0 43.0873L17.3614 22.2757C22.0348 22.1333 26.7261 22.1404 31.4174 22.144L31.6287 22.1903L49.5917 43.4291H35.2814L23.7215 29.7115C21.9094 27.5605 20.1726 25.3205 18.3068 23.2159C18.2352 23.134 18.0346 22.8954 17.9272 22.9203L0.802177 43.4149L0 43.4291V43.0873Z" fill="#0F2046"/>
<path d="M0 48.4716C0.150408 48.1084 0.426156 47.9267 0.820082 47.8769C1.97321 47.7309 3.76736 47.8769 4.94556 47.9517C5.99842 48.0193 6.76836 48.0158 7.75676 48.4894C9.73713 49.4438 10.0952 52.0791 8.77022 53.7279L7.64933 54.5363C10.2528 54.928 11.0908 57.9265 9.86963 60.0348C9.22145 61.1565 7.97163 61.7726 6.72539 62.0361C5.25354 62.3424 2.43518 62.3495 0.902448 62.2356C0.415413 62.2 0.207706 62.0753 0.00358114 61.6337V48.4716H0ZM5.11387 50.0955C4.42629 49.9993 3.54533 50.1667 2.83627 50.0955V53.7706H5.19982C5.28219 53.7706 5.99125 53.4038 6.0772 53.3184C6.25268 53.151 6.55708 52.5848 6.59647 52.339C6.70032 51.7336 6.58931 50.9751 6.10227 50.562C5.90531 50.3946 5.35739 50.1275 5.11029 50.0955H5.11387ZM2.83627 60.0098H5.54361C5.74057 60.0098 6.39951 59.7214 6.59289 59.6003C7.8248 58.8133 7.58845 56.7407 6.21329 56.1851C6.0199 56.1068 5.36814 55.9109 5.19982 55.9109H2.96519L2.83627 56.0391V60.0134V60.0098Z" fill="#0F2046"/>
<path d="M0 64.8812C0.136083 64.7815 0.200544 64.7245 0.383183 64.7067C1.21401 64.6212 3.18006 64.6426 3.97507 64.8206C4.70562 64.9844 5.41469 65.3121 5.63672 66.0742C5.97335 67.228 5.23921 68.0114 4.16487 68.2963C4.0646 68.3213 3.8927 68.3604 4.04311 68.4708C4.49792 68.5741 4.90975 69.0869 5.1461 69.468C5.54003 70.109 5.85517 70.8853 6.24194 71.5441C6.51052 72.057 5.17834 71.9323 5.02793 71.8112C4.16487 70.5363 4.04311 68.7985 2.19882 68.6418C1.91591 68.6169 1.40381 68.5777 1.20685 68.7735V71.7649C0.934679 71.9893 0.325884 71.9252 0.00358114 71.8077V64.8847L0 64.8812ZM1.20326 67.8726H3.22303C3.31256 67.8726 4.03953 67.5022 4.12906 67.406C4.60177 66.8968 4.41555 65.9745 3.78169 65.6931C3.69932 65.6575 3.16931 65.4794 3.13708 65.4794H1.33219L1.20326 65.6076V67.8726Z" fill="#0F2046"/>
<path d="M38.332 0.693616C38.5433 0.679371 38.7689 0.714983 38.9802 0.693616C45.4549 0.113143 52.0908 -0.349811 58.5798 0.34462C62.3866 0.750595 66.4583 1.46995 69.6491 3.69569C69.7602 3.77404 70.5229 4.41149 70.5659 4.3652L70.2293 2.61309C70.3331 2.13233 70.2866 1.77622 70.5802 1.34531C70.9742 0.76484 72.002 0.483506 72.6716 0.43365C74.0862 0.323253 76.5035 0.323253 77.918 0.43365C79.3326 0.544046 80.2422 1.03549 80.4284 2.46709L87.2863 31.9715L94.402 2.46709C94.8568 0.932215 95.6841 0.682932 97.1667 0.515557C98.6492 0.348181 101.675 0.276958 103.083 0.540485C104.272 0.76484 104.884 1.25272 105.253 2.39942C105.622 3.54612 105.908 5.00265 106.22 6.22413C108.34 14.5858 110.474 22.9653 112.494 31.3518C112.548 31.5726 112.587 31.829 112.601 32.057L112.773 31.9288L119.606 2.13946C119.796 1.11384 120.731 0.693616 121.676 0.522679C122.826 0.316131 125.712 0.316131 126.908 0.437211C127.409 0.487067 128.197 0.747034 128.552 1.11027C129.121 1.69787 129.046 2.6309 128.928 3.37163L118.722 41.9392C118.22 43.232 116.838 43.6807 115.563 43.8409C113.772 44.0653 110.664 44.051 108.87 43.8409C107.183 43.6415 105.937 43.1038 105.579 41.3018L99.4514 17.0964C99.3368 17.0751 99.3225 17.2496 99.301 17.3315C97.3063 25.4403 95.4692 33.5883 93.4602 41.6935C93.0448 42.9043 92.2068 43.4955 90.9641 43.7412C89.1485 44.1009 85.4635 44.0546 83.5977 43.8409C81.8537 43.6415 80.6397 43.1536 80.2207 41.3018L73.6636 16.1527C73.5347 16.167 73.5239 16.2738 73.4953 16.3699C73.087 17.7873 72.0306 19.3257 71.0852 20.4689C70.8882 20.7075 70.1899 21.3485 70.0932 21.5337C70.0466 21.6227 70.0431 21.6939 70.0538 21.7936C72.1953 22.1213 73.66 24.3648 74.3942 26.238C75.7228 29.614 76.0093 34.0868 74.1936 37.3239C70.0968 44.6279 59.9263 44.0119 52.7354 43.5026C52.2878 43.4706 51.8294 43.5667 51.4032 43.3744L38.3392 27.9046V0.693616H38.332ZM50.7085 17.9582C51.0917 18.0437 51.4748 18.0188 51.8652 18.0473C54.0461 18.2218 58.1501 18.3037 60.1878 17.595C61.4734 17.1498 62.7196 15.2268 62.8306 13.8985C63.0383 11.4235 60.7572 9.40071 58.4043 9.2369C56.4455 9.09801 54.0103 9.21553 52.0442 9.32592C51.6897 9.34729 51.2564 9.27607 50.9233 9.32236C50.8231 9.33661 50.7693 9.37222 50.712 9.45413V17.9582H50.7085ZM50.7085 34.3682C51.0057 34.386 51.3173 34.3468 51.6145 34.3682C53.953 34.5249 56.5923 34.5925 58.9236 34.3753C60.3238 34.2471 61.3015 33.9017 62.229 32.7906C63.7438 30.9708 63.4072 28.7237 61.9712 26.9787C60.9255 25.7074 60.0338 25.6824 58.4867 25.6575C56.9397 25.6326 55.21 25.7109 53.5949 25.743C52.5492 25.7643 51.4999 25.7216 50.4542 25.743L50.712 34.3753L50.7085 34.3682Z" fill="#0F2046"/>
<path d="M80.2743 59.2399L83.1464 48.04C83.3004 47.9439 83.483 47.8904 83.6656 47.8726C84.1419 47.8263 85.0873 47.8263 85.5601 47.8726C85.8251 47.8976 86.1116 47.983 86.2226 48.2394L88.955 59.3254C89.1305 59.2934 89.0982 59.1473 89.1305 59.0298C90.083 55.4686 90.6704 51.7543 91.6373 48.1896C91.7411 47.9759 91.9488 47.894 92.1744 47.8691C92.4466 47.8406 93.9614 47.837 94.1118 47.9154C94.1512 47.9367 94.3052 48.0863 94.3267 48.129C94.4843 48.4424 94.1047 49.6247 94.0008 50.0307C93.0196 53.9623 91.8915 57.8653 90.8602 61.7791C90.7635 61.9963 90.4268 62.1957 90.1941 62.2278C89.5888 62.3168 88.7473 62.3631 88.1313 62.3168C87.9236 62.3026 87.3793 62.21 87.2074 62.1245C87.0749 62.0604 86.9818 61.95 86.8994 61.8325L84.5788 52.7728L84.3962 52.4844L82.1795 61.7755C82.0863 61.95 81.8679 62.1708 81.6709 62.21C80.8831 62.3773 79.6512 62.3524 78.8562 62.2206C78.652 62.1886 78.4157 62.0996 78.2903 61.9286L74.788 48.7451C74.7378 48.2537 74.6519 47.9225 75.2356 47.8655C75.7119 47.8157 76.7433 47.8157 77.2196 47.8655C77.4273 47.8869 77.6171 47.9439 77.7102 48.1468L80.2707 59.2364L80.2743 59.2399Z" fill="#0F2046"/>
<path d="M60.764 61.9334C60.6566 62.0474 60.5205 62.1827 60.3629 62.2183C59.9941 62.2967 59.3745 62.3465 59.0021 62.3216C58.8302 62.3109 58.3288 62.2397 58.182 62.1969C58.0352 62.1542 57.8597 62.0082 57.8418 61.8515V48.6858C57.8633 48.1481 58.2357 47.9237 58.7407 47.8739C60.1874 47.7314 62.6083 47.824 64.0658 47.9665C65.6917 48.1267 67.5216 49.2663 67.7186 51.0006C67.9442 52.9592 67.253 54.9321 65.1796 55.477C65.0793 55.5019 64.9074 55.5411 65.0578 55.6515C65.7776 55.8509 66.279 56.5916 66.6228 57.2184C67.1635 58.2049 67.7831 59.7148 68.1949 60.7832C68.3274 61.1215 68.6175 61.7411 68.4527 62.0652C68.3274 62.3145 67.9872 62.2112 67.7687 62.2397C67.1062 62.3252 66.4688 62.3821 65.8027 62.2183C65.5771 62.1613 65.4481 62.0118 65.355 61.8088C64.7069 60.4092 64.3237 58.8031 63.5251 57.4748C62.8554 56.3566 62.0031 56.2818 60.7604 56.3352V61.9334H60.764ZM60.764 54.1985H62.6978C62.7229 54.1985 63.1276 54.1166 63.1956 54.0953C64.3344 53.7961 64.8322 52.9023 64.7176 51.7591C64.6316 50.9009 64.0157 50.3631 63.192 50.1993C63.0918 50.178 62.5582 50.096 62.5224 50.096H60.7604V54.1985H60.764Z" fill="#0F2046"/>
<path d="M99.2405 47.8909C100.125 47.9372 101.196 47.7698 102.055 47.8802C102.277 47.9087 102.542 48.0262 102.657 48.2221L107.216 61.2097C107.284 61.5374 107.502 61.9504 107.173 62.1962C106.568 62.3173 105.937 62.3671 105.318 62.3279C105.157 62.3173 104.612 62.2496 104.505 62.1962C104.43 62.1606 104.304 62.0039 104.265 61.922L103.309 59.0267L97.9405 58.9982L97.8152 59.13C97.5001 59.9669 97.321 61.0602 96.945 61.8543C96.8554 62.0466 96.7552 62.1641 96.5367 62.2175C95.8241 62.392 95.047 62.3244 94.3307 62.2247C94.1553 62.1748 94.055 61.7831 94.123 61.6121L98.8287 48.1722L99.2333 47.8909H99.2405ZM102.535 56.7618L100.601 50.6936L98.5816 56.63C98.6424 56.9292 99.7419 56.687 99.9961 56.6728C100.641 56.6407 101.404 56.6835 102.062 56.6835C102.199 56.6835 102.367 56.8117 102.535 56.7618Z" fill="#0F2046"/>
<path d="M49.6774 50.1807V53.6849H54.1037C54.3437 53.8594 54.3866 54.2084 54.4081 54.4933C54.4403 54.9384 54.4475 55.6008 54.1037 55.9071H49.6774V59.9241H54.8772C54.8772 59.9241 55.0742 60.0238 55.0993 60.063C55.3321 60.4547 55.3285 61.6976 55.0993 62.0929C55.0456 62.1854 54.888 62.1997 54.7877 62.2282L47.5681 62.2353C47.2243 62.2032 47.0095 62.0679 46.7946 61.808L46.748 48.5995C46.7731 48.1045 47.2208 47.9371 47.6505 47.873L54.7698 47.8909C55.0742 47.955 55.1494 48.2327 55.1745 48.5141C55.221 49.0055 55.2819 49.8673 54.8701 50.1843H49.6703L49.6774 50.1807Z" fill="#0F2046"/>
<path d="M20.9274 59.9237C20.9668 59.9344 21.1924 60.173 21.2103 60.2407C21.3965 60.8212 21.3213 61.5192 21.1458 62.0925L20.8379 62.2278H13.45C12.9379 62.0818 12.7695 61.7578 12.7588 61.2485C12.6728 57.0499 12.9199 52.8049 12.8018 48.5956C12.8268 48.1006 13.2745 47.9332 13.7042 47.8691L20.8235 47.8905C21.085 47.9154 21.2031 48.268 21.2282 48.5102C21.2819 48.998 21.3106 49.8492 20.9238 50.1804H15.767L15.638 50.3086V53.5564L15.767 53.6846H20.1503C20.5943 54.2508 20.5908 55.3441 20.1503 55.9067H15.767L15.638 56.0349V59.9237H20.9238H20.9274Z" fill="#0F2046"/>
<path d="M2.3202 43.4287C2.24141 43.3646 3.41603 42.0648 3.52346 41.933C8.31145 36.1247 13.1317 30.3521 17.9197 24.5402L18.1739 24.4512L19.943 26.6342L6.05533 43.4287H2.3202Z" fill="#0F2046"/>
<path d="M117.3 47.9768C117.34 48.016 117.401 48.1976 117.401 48.2581L113.211 56.6518C113.068 58.2437 113.347 60.0243 113.196 61.5948C113.182 61.7586 113.128 61.9117 113.068 62.0648C113.014 62.1361 112.799 62.1966 112.702 62.2144C112.273 62.2963 111.7 62.3533 111.266 62.3141C111.098 62.2999 110.543 62.2037 110.418 62.1325C110.242 62.0363 110.203 61.869 110.185 61.6802C110.024 60.124 110.324 58.3185 110.17 56.7373L105.98 48.2581C106.013 47.959 106.163 47.8949 106.446 47.87C106.937 47.8272 108.129 47.8059 108.595 47.8735C108.838 47.9091 108.996 48.0872 109.157 48.2546L111.778 54.0237L114.396 48.0801C114.525 47.9483 114.772 47.8842 114.955 47.8664C115.456 47.8165 116.434 47.8201 116.939 47.8664C117.035 47.8735 117.243 47.9091 117.304 47.9732L117.3 47.9768Z" fill="#0F2046"/>
<path d="M22.7335 50.2659C22.5938 50.2268 22.4541 49.6819 22.4398 49.5323C22.3968 49.1477 22.404 48.1007 22.7764 47.912L32.9433 47.8906L33.2477 47.969C33.4876 48.4284 33.4984 49.1833 33.4303 49.6997C33.4017 49.9134 33.305 50.1306 33.1331 50.2588H29.5233L29.3944 50.387V62.0535C29.2153 62.0641 29.0971 62.1852 28.9181 62.2208C28.3272 62.3455 27.4641 62.3348 26.8733 62.2066C26.7157 62.171 26.5796 62.0392 26.4722 61.9217V50.2553H22.7335V50.2659Z" fill="#0F2046"/>
<path d="M40.9978 50.2658V61.9323C40.9118 62.0427 40.833 62.0996 40.7005 62.1495C40.5215 62.2207 40.0416 62.3062 39.8375 62.3204C39.2609 62.3596 38.6092 62.2528 38.072 62.0605V50.394L37.9431 50.2658H34.3333C34.1864 50.1376 34.0647 49.9916 34.036 49.7922C33.9823 49.4361 33.9859 48.2146 34.2223 47.976C34.301 47.8941 34.5517 47.8691 34.6735 47.8691L44.5431 47.8905C45.0373 47.9973 45.0624 48.877 45.0337 49.2865C45.0122 49.5821 44.9406 50.0593 44.7293 50.2658H40.9906H40.9978Z" fill="#0F2046"/>
<path d="M61.0222 70.437V64.8388C61.1547 64.6322 62.1037 64.6678 62.186 64.7925L62.2254 71.5943C62.1646 72.0217 61.0437 71.9398 60.7393 71.7866C60.5244 71.6798 60.3525 71.402 60.1627 71.2489L56.381 65.8217V71.7617C56.2091 71.9433 55.6361 71.9291 55.3926 71.8899C55.2315 71.865 55.1133 71.7475 55.0918 71.5908V65.2626L55.1921 64.8103C55.321 64.65 56.843 64.6251 57.0722 64.9171L61.0222 70.4334V70.437Z" fill="#0F2046"/>
<path d="M27.2245 64.6453C29.3804 64.3497 32.1701 64.9159 32.4065 67.4871C32.65 70.1438 31.3894 71.8068 28.6677 71.9813C26.5405 72.1167 24.485 71.5184 24.0696 69.1929C23.6541 66.8675 24.8502 64.9729 27.221 64.6453H27.2245ZM27.8262 65.4145C26.4653 65.557 25.502 66.3582 25.3623 67.7506C25.2048 69.3069 25.699 70.9165 27.4681 71.116C29.3374 71.3296 30.9024 70.7064 31.1101 68.6801C31.3357 66.4722 30.0501 65.183 27.8298 65.4181L27.8262 65.4145Z" fill="#0F2046"/>
<path d="M18.1962 70.9274C16.5418 72.4766 12.1728 72.4516 11.1271 70.1832C10.418 68.6412 10.7009 66.2623 12.2301 65.2937C13.6733 64.3784 16.4343 64.3499 17.8739 65.2723C19.5714 66.362 19.6108 69.6062 18.1998 70.9274H18.1962ZM14.5041 65.4147C12.5559 65.6498 11.8899 67.2096 12.1405 69.0044C12.3017 70.1475 13.0501 70.9809 14.2319 71.1126C16.5239 71.3726 18.0637 70.322 17.8811 67.9111C17.7379 65.9952 16.3484 65.1939 14.5041 65.4147Z" fill="#0F2046"/>
<path d="M74.9032 67.9572C75.1252 67.9928 75.1896 68.2279 75.2076 68.4237C75.2613 69.079 75.2756 70.3503 75.2076 70.9949C75.1538 71.5077 74.7814 71.5505 74.3445 71.6751C71.3292 72.544 67.193 71.7071 67.5511 67.8255C67.8232 64.8554 71.698 64.1752 74.0867 64.8341C74.7635 65.0228 75.4188 65.2365 75.1144 66.0733C74.8351 66.1374 74.6596 65.9451 74.4304 65.8597C73.1126 65.3789 71.63 65.1296 70.33 65.7991C68.4177 66.7856 68.3031 69.6167 70.1904 70.6744C71.3113 71.3012 72.7222 71.2157 73.9148 70.8596V68.7229H71.6371C71.4366 68.5591 71.4366 68.1175 71.6371 67.9537H74.9032V67.9572Z" fill="#0F2046"/>
<path d="M112.928 66.0698C112.448 66.1339 112.075 65.7707 111.628 65.6247C109.25 64.859 107.266 66.2051 107.527 68.7621C107.739 70.8133 109.665 71.4615 111.477 70.9949C111.771 70.9202 112.763 70.4038 112.888 70.4394C113.071 70.4857 113.053 71.0021 113.01 71.1516C112.928 71.433 111.724 71.8105 111.413 71.871C109.239 72.3019 106.689 71.6217 106.238 69.193C106.084 68.3739 106.209 67.3127 106.589 66.5613C107.552 64.6382 110.235 64.2323 112.125 64.8804C112.709 65.0798 113.246 65.3754 112.931 66.0734L112.928 66.0698Z" fill="#0F2046"/>
<path d="M39.0193 67.9584H42.4143C42.6649 68.1578 42.5145 68.4748 42.4572 68.7276H39.0193V71.7617C38.8868 71.9683 37.9378 71.9327 37.8555 71.808V64.878L38.0309 64.707H42.5862C42.7867 64.8708 42.7867 65.3124 42.5862 65.4762H39.1483L39.0193 65.6045V67.9548V67.9584Z" fill="#0F2046"/>
<path d="M98.4962 64.7099V71.0346H101.977L102.196 71.4227L101.977 71.8892H97.5938C97.558 71.8892 97.3467 71.729 97.293 71.6756V64.7099C97.7263 64.6422 98.0629 64.5817 98.4962 64.7099Z" fill="#0F2046"/>
<path d="M88.8693 64.71V71.0346H92.2642C92.5507 71.0346 92.5543 71.5688 92.4648 71.7896C92.3716 71.8252 92.275 71.8751 92.1747 71.8858C90.9177 72.0318 89.4208 71.7825 88.1351 71.8929L87.666 71.6756V64.71C88.1029 64.6209 88.4324 64.6245 88.8693 64.71Z" fill="#0F2046"/>
<path d="M23.807 38.1289V41.2058H20.7129V38.2571L20.8418 38.1289H23.807Z" fill="#0F2046"/>
<path d="M19.7679 38.1289V41.2058H16.6738V38.2571L16.8027 38.1289H19.7679Z" fill="#0F2046"/>
<path d="M23.807 34.1973V37.2741H20.8418L20.7129 37.1459V34.1973H23.807Z" fill="#0F2046"/>
<path d="M19.7679 34.1973V37.2741H16.8027L16.6738 37.1459V34.1973H19.7679Z" fill="#0F2046"/>
<path d="M49.2482 64.6172H48.0449V71.8927H49.2482V64.6172Z" fill="#0F2046"/>
</g>
<defs>
<clipPath id="clip0_4954_8974">
<rect width="129" height="72" fill="white"/>
</clipPath>
</defs>
</svg>
