<?xml version="1.0" encoding="utf-8"?>
<!-- Generator: Adobe Illustrator 28.0.0, SVG Export Plug-In . SVG Version: 6.00 Build 0)  -->
<svg version="1.1" id="Layer_1" xmlns="http://www.w3.org/2000/svg" xmlns:xlink="http://www.w3.org/1999/xlink" x="0px" y="0px"
	 width="800px" height="237px" viewBox="0 0 800 237" style="enable-background:new 0 0 800 237;" xml:space="preserve">
<style type="text/css">
	.st0{fill:#DEDCD7;}
	.st1{fill:#8BA4B3;}
	.st2{fill:#283145;}
	.st3{fill:#E5E3DA;}
	.st4{opacity:9.000000e-02;}
	.st5{fill:#FFFFFF;}
	.st6{clip-path:url(#SVGID_00000096048766483629116580000006411639918962731166_);}
	.st7{opacity:0.57;fill:#E5E3DA;}
	.st8{display:none;opacity:0.45;fill:#E5E3DA;}
	.st9{opacity:0.45;fill:#E5E3DA;}
	.st10{clip-path:url(#SVGID_00000065046820933421011130000007729409013179412115_);}
	.st11{clip-path:url(#SVGID_00000073713024853606387490000001167190328960966809_);}
	.st12{fill:#1D1D1B;}
	.st13{fill:#990080;}
	.st14{fill:#A09680;}
	.st15{fill:#C6C4BA;}
	.st16{fill:#8A8062;}
	.st17{opacity:0.15;}
	.st18{fill:#94ADBC;}
	.st19{opacity:0.13;}
	.st20{fill:#3C4456;}
	.st21{opacity:0.24;}
	.st22{fill:#EFEEEC;}
	.st23{opacity:0.6;}
	.st24{opacity:0.6;clip-path:url(#SVGID_00000060001180112988908770000014343491297250019221_);}
	.st25{fill-rule:evenodd;clip-rule:evenodd;fill:#FFFFFF;}
	.st26{opacity:0.57;}
	.st27{opacity:0.4;fill:none;stroke:#8A8062;stroke-width:1.0199;stroke-miterlimit:10;}
	.st28{opacity:0.4;fill:none;stroke:#8A8062;stroke-width:1.0073;stroke-miterlimit:10;}
	.st29{opacity:0.4;fill:none;stroke:#8A8062;stroke-width:1.0018;stroke-miterlimit:10;}
	.st30{opacity:0.4;fill:none;stroke:#8A8062;stroke-width:1.0217;stroke-miterlimit:10;}
	.st31{opacity:0.4;fill:none;stroke:#8A8062;stroke-width:1.0055;stroke-miterlimit:10;}
	.st32{opacity:0.8;}
	.st33{clip-path:url(#SVGID_00000094598526595272852880000014605167860173660329_);}
	.st34{opacity:0.6;clip-path:url(#SVGID_00000168091591785263176650000018426659519668681098_);}
	.st35{fill:none;}
	.st36{opacity:0.4;fill:none;stroke:#8A8062;stroke-width:1.0854;stroke-miterlimit:10;}
	.st37{fill:#6C6C6C;}
</style>
<g>
	<path class="st2" d="M159.9,107.8c1.7-2.6,2.7-7.2,2.7-7.2s-2.7,4-4.2,5.6c-0.9,1-3,2.7-4.8,3.6c-1.9,0.9-3.6,1.3-5.3,1.3
		c-3,0-5.4-1.1-7.1-3.2c-1.7-2.2-2.6-4.7-2.6-7.6V60.9h19.9v-3.2h-19.9V45.2l-1.7,3.5c-1.1,2.3-2.7,4.5-4.7,6.3
		c-1.9,1.8-4.7,2.6-8.5,2.6h-0.9v3.2h7.5V98c0,2.3,0.3,4.5,0.7,6.5c0.5,2.1,1.4,4,2.5,5.6c1.2,1.7,2.8,3,4.6,4
		c1.9,1,4.1,1.4,6.7,1.5C154.3,115.8,158.2,110.6,159.9,107.8z"/>
	<path class="st2" d="M278.6,95.9l-2.3-1.9l-0.5,0.9c-3,5.1-6.5,8.8-10.3,11.1c-6.8,4-13.8,4.4-19.9,1.5c-2.7-1.3-5.1-3.1-7.2-5.4
		c-2.1-2.3-3.7-5.1-5-8.3c-1.2-3.2-1.9-6.7-1.9-10.6V81c0-0.3,0-0.7,0.1-1h41.7v-0.9c0-3-0.6-5.9-1.8-8.6c-1.2-2.7-2.8-5.1-4.8-7.2
		c-2-2-4.5-3.7-7.4-5c-2.9-1.3-6.1-1.9-9.5-1.9c-4,0-7.6,0.8-10.9,2.4c-3.2,1.6-6.1,3.8-8.4,6.6c-2.3,2.7-4.1,5.9-5.4,9.5
		c-1.3,3.5-1.9,7.3-1.9,11.1c0,4.8,0.7,9.1,2.1,12.7c1.4,3.7,3.3,6.8,5.6,9.3c2.4,2.5,5.1,4.4,8.2,5.7c3.1,1.3,6.4,1.9,9.8,1.9
		c5.3,0,10.6-1.6,15.8-4.7c5.2-3.1,9.7-7.9,13.3-14.3L278.6,95.9z M232,76.8c0.9-5.8,2.9-10,5.8-12.7c3.1-2.8,6.5-4.3,10-4.3
		c1.9,0,3.8,0.4,5.6,1.1c1.8,0.7,3.4,1.9,4.8,3.4c1.4,1.5,2.6,3.4,3.4,5.6c0.8,2,1.2,4.3,1.3,6.8H232z"/>
	<path class="st2" d="M315.1,69.8V56.9h-0.9c-1.7,0-3.6,0.3-5.8,1h0c-2.1,0.7-4.3,1.6-6.4,2.7c-2.1,1.1-4.2,2.6-6,4.2
		c-1,0.9-1.9,1.9-2.7,2.9V64c0-2-0.7-3.7-1.9-5c-1.3-1.3-3-1.9-5-1.9h-1.2v47.8c0,2-0.4,3.8-1,5.3c-0.6,1.4-1.9,2.4-3.8,3l-5.7,1.7
		h29.1l-5.7-1.7c-1.9-0.6-3.1-1.5-3.7-2.9c-0.6-1.5-1-3.3-1-5.3V74.4c0-0.8,0.3-1.8,0.9-2.9c0.6-1.2,1.5-2.3,2.6-3.4
		c1.1-1.1,2.4-2,3.7-2.7c1.3-0.7,2.7-1,4.2-1c2.1,0,3.7,0.4,4.9,1.1c1.3,0.8,2.6,1.8,4,3L315.1,69.8z"/>
	<path class="st2" d="M454.5,94.8c-3,5.1-6.5,8.8-10.3,11.1c-6.8,4-13.8,4.4-19.9,1.5c-2.7-1.3-5.1-3.1-7.2-5.4
		c-2.1-2.3-3.7-5.1-5-8.3c-1.2-3.2-1.9-6.7-1.9-10.6V81c0-0.3,0-0.7,0.1-1h41.7v-0.9c0-3-0.6-5.9-1.8-8.6c-1.2-2.7-2.8-5.1-4.8-7.2
		c-2-2-4.5-3.7-7.4-5c-2.9-1.3-6.1-1.9-9.5-1.9c-4,0-7.6,0.8-10.9,2.4c-3.2,1.6-6.1,3.8-8.4,6.6c-2.3,2.7-4.1,5.9-5.4,9.5
		c-1.3,3.5-1.9,7.3-1.9,11.1c0,4.8,0.7,9.1,2.1,12.7c1.4,3.7,3.3,6.8,5.6,9.3c2.4,2.5,5.1,4.4,8.2,5.7c3.1,1.3,6.4,1.9,9.8,1.9
		c5.3,0,10.6-1.6,15.8-4.7c5.2-3.1,9.7-7.9,13.3-14.3l0.4-0.6l-2.3-1.9L454.5,94.8z M410.8,76.8c0.9-5.8,2.9-10,5.8-12.7
		c3.1-2.8,6.5-4.3,10-4.3c1.9,0,3.8,0.4,5.6,1.1c1.8,0.7,3.4,1.9,4.8,3.4c1.4,1.5,2.6,3.4,3.4,5.6c0.8,2,1.2,4.3,1.3,6.8H410.8z"/>
	<path class="st2" d="M549.9,92.7c0-3.5-0.8-6.6-2.5-9.2c-1.6-2.6-3.7-4.8-6.2-6.7c-2.5-1.8-5.3-3.2-8.4-4.2
		c-1.6-0.5-3.3-0.9-4.9-1.3c0.8-0.3,1.5-0.6,2.2-0.9c2.1-1,4.1-2.3,5.8-3.9c1.8-1.6,3.2-3.4,4.3-5.5c1.1-2,1.6-4.2,1.6-6.5
		c0-3.6-0.7-6.7-2.2-9.2c-1.5-2.5-3.4-4.6-5.8-6.2c-2.4-1.5-5.1-2.7-8.1-3.4c-3-0.7-6.1-1.1-9.1-1.1h-31.7l5.8,1.7
		c1.9,0.6,3.1,1.6,3.8,3c0.7,1.5,1,3.3,1,5.2v10.8c0,4.6,1.5,8.5,4.3,11.4c2.3,2.3,4.9,4.2,7.9,5.4c-3,1.3-5.7,3.2-7.9,5.7
		c-2.9,3.2-4.3,7.1-4.3,11.8V105c0,1.9-0.4,3.7-1.1,5.3c-0.6,1.5-1.9,2.5-3.8,3L485,115h37.1c3.4,0,6.7-0.4,10-1.2
		c3.3-0.8,6.3-2.2,9-4c2.7-1.8,4.8-4.2,6.4-6.9C549.1,100.1,549.9,96.6,549.9,92.7z M504.8,82.7c0-1,0.2-2,0.6-3.1
		c0.4-1.1,1-2.1,1.7-2.9c0.7-0.9,1.6-1.6,2.6-2.2c1-0.6,2.1-0.8,3.3-0.8h6.7c6.1,0,10.9,1.6,14.4,4.9c3.5,3.2,5.3,8,5.3,14.1
		c0,5.9-1.7,10.7-5,14.2c-3.3,3.4-8,5.2-13.9,5.2h-15.8V82.7z M515.3,70.6h-2.2c-1.2,0-2.4-0.3-3.3-0.8c-1-0.6-1.9-1.3-2.6-2.2
		c-0.7-0.9-1.3-1.9-1.7-2.9c-0.4-1-0.6-2-0.6-2.8V37.7h11c5.2,0,9.2,1.5,12,4.5c2.8,3,4.3,7.1,4.3,12.3c0,5.3-1.5,9.3-4.4,12
		C524.7,69.2,520.5,70.6,515.3,70.6z"/>
	<path class="st2" d="M585.3,57.9L585.3,57.9c-2.1,0.7-4.3,1.6-6.4,2.7c-2.1,1.1-4.2,2.6-6,4.2c-1,0.9-1.9,1.9-2.7,2.9V64
		c0-2-0.7-3.7-1.9-5c-1.3-1.3-3-1.9-5-1.9h-1.2v47.8c0,2-0.4,3.8-1,5.3c-0.6,1.4-1.9,2.4-3.8,3l-5.7,1.7h29.1l-5.7-1.7
		c-1.9-0.6-3.1-1.5-3.7-2.9c-0.6-1.5-1-3.3-1-5.3V74.4c0-0.8,0.3-1.8,0.9-2.9c0.6-1.2,1.5-2.3,2.6-3.4c1.1-1.1,2.4-2,3.7-2.7
		c1.3-0.7,2.7-1,4.2-1c2.1,0,3.7,0.4,4.9,1.1c1.3,0.8,2.6,1.8,4,3l1.4,1.2V56.9h-0.9C589.5,56.9,587.5,57.2,585.3,57.9z"/>
	<path class="st2" d="M642.8,64.6c-2.6-2.6-5.7-4.7-9.2-6.3c-3.5-1.5-7.3-2.3-11.2-2.3c-4,0-7.7,0.8-11.2,2.3
		c-3.5,1.5-6.6,3.6-9.2,6.3c-2.6,2.6-4.7,5.7-6.3,9.2c-1.5,3.5-2.3,7.3-2.3,11.2c0,4,0.8,7.7,2.3,11.2c1.5,3.5,3.6,6.6,6.3,9.2
		c2.6,2.6,5.7,4.7,9.2,6.3c3.5,1.5,7.3,2.3,11.4,2.3c4,0,7.7-0.8,11.2-2.3c3.5-1.5,6.6-3.6,9.2-6.3c2.6-2.6,4.7-5.7,6.2-9.2
		c1.5-3.5,2.2-7.3,2.2-11.2c0-3.9-0.8-7.7-2.3-11.2C647.5,70.4,645.4,67.2,642.8,64.6z M623.9,111c-3.3,0-6.4-0.8-9-2.5
		c-2.7-1.7-4.9-3.9-6.8-6.6c-1.9-2.7-3.3-5.8-4.3-9.1c-1-3.3-1.5-6.6-1.5-9.7c0-2.8,0.4-5.6,1.2-8.5c0.8-2.8,1.9-5.4,3.5-7.6
		c1.5-2.2,3.4-4,5.7-5.4c2.2-1.4,4.8-2.1,7.7-2.1c3.3,0,6.4,0.8,9,2.5c2.7,1.7,4.9,3.9,6.8,6.6c1.9,2.7,3.3,5.7,4.2,9
		c0.9,3.3,1.4,6.6,1.4,9.8c0,2.8-0.4,5.7-1.2,8.5c-0.8,2.8-1.9,5.4-3.4,7.6c-1.5,2.2-3.4,4-5.6,5.4C629.4,110.3,626.8,111,623.9,111
		z"/>
	<path class="st2" d="M735.4,58.7l-0.2-1.6h-18.4l-0.1,1.7l0.6,0.1c1.6,0.2,2.7,0.8,3.4,2.1c0.8,1.3,1.2,2.7,1.2,4.3
		c0,0.5,0,0.9-0.1,1.2c-0.1,0.4-0.3,0.8-0.4,1.3L708,101.4c-0.4-0.7-0.8-1.7-1.3-2.8c-1-2.2-2.2-4.7-3.4-7.4
		c-1.3-2.8-2.6-5.7-4.1-8.8c-1.5-3.1-2.8-6-3.9-8.6c-1.2-2.6-2.1-5-2.9-7c-1-2.7-1.1-3.4-1.1-3.5c0-2.2,0.9-3.6,2.8-4.5l3.9-1.7h-26
		l4.2,1.7c2,0.8,3.4,1.9,4.4,3.3c1,1.5,2,3.3,3,5.4l4.8,10.9l-9.4,23.1c-0.4-0.7-0.8-1.7-1.3-2.8c-1-2.2-2.2-4.7-3.4-7.4
		c-1.3-2.8-2.6-5.7-4.1-8.8c-1.4-3.1-2.8-6-3.9-8.6c-1.2-2.6-2.1-5-2.9-7c-1-2.7-1.1-3.4-1.1-3.5c0-2.2,0.9-3.6,2.8-4.5l3.9-1.7h-26
		l4.2,1.7c2,0.8,3.5,1.9,4.5,3.3c1.1,1.5,2,3.3,2.9,5.4l21.7,49l13.8-33.8l15.1,33.8l20.5-50.1c0.8-1.9,2-3.5,3.6-4.9
		c1.6-1.3,3.4-2.2,5.4-2.6L735.4,58.7z"/>
	<path class="st2" d="M776.4,109.8c-0.7,1.6-2.1,2.7-4,3.4l-5.2,1.7H796l-5.2-1.7c-2-0.7-3.3-1.8-4-3.3c-0.7-1.6-1.1-3.5-1.1-5.6
		V77.2c0-3.6-0.4-6.7-1.3-9.3c-0.9-2.6-2.1-4.8-3.7-6.5c-1.6-1.7-3.4-2.9-5.4-3.7c-2-0.8-4.2-1.2-6.4-1.2c-4.2,0-8.4,1.3-12.5,3.7
		c-3.2,1.9-6,4.5-8.2,7.5v-3.4c0-2.2-0.7-3.9-1.9-5.2c-1.3-1.3-3-1.9-5.2-1.9H740v47.2c0,2.1-0.4,4-1,5.6c-0.6,1.5-2,2.6-4,3.4
		l-4.5,1.7h27.3l-4.5-1.7c-2-0.8-3.4-1.9-4.1-3.4c-0.7-1.6-1.1-3.5-1.1-5.6L748,73.7c0.8-1.9,1.8-3.6,3.1-5.2c1.3-1.6,2.8-3,4.4-4.2
		c1.6-1.2,3.4-2.1,5.1-2.7c1.8-0.6,3.5-0.9,5.2-0.9c3.2,0,5.9,1.2,8.2,3.4c2.3,2.3,3.4,6.2,3.4,11.6v28.5
		C777.5,106.2,777.1,108.1,776.4,109.8z"/>
	<path class="st2" d="M107.8,107.5c0,0.2,0,7.4,0,7.4h19l-5.7-1.7c-1.9-0.6-3.1-1.6-3.8-3v0c-0.7-1.5-1-3.3-1-5.3v-30
		c-0.2-11.9-6.3-18-18.2-18c-5.5,0-10,1.4-13.4,4c-3.3,2.6-6.1,5.9-8.5,9.8l-0.4,0.6l8.5,8.1L84,77.1c-0.2-1.8-0.1-3.8,0.4-5.8
		c0.5-2,1.2-4,2.3-5.7c1-1.7,2.5-3.2,4.2-4.3c1.7-1.1,3.7-1.6,6-1.6c3.2,0,5.9,1.2,8,3.5c2.1,2.3,3.1,4.9,3.1,7.7
		c0,2.1-0.8,3.7-2.2,4.9c-1.6,1.3-3.7,2.5-6.3,3.5c-2.6,1-5.4,2-8.4,2.9c-3.1,1-6,2.2-8.6,3.6c-2.7,1.4-5,3.3-6.8,5.5
		c-1.8,2.3-2.8,5.3-2.8,9c0,2.4,0.5,4.6,1.5,6.5c1,1.9,2.4,3.6,4.1,4.9c1.7,1.3,3.6,2.3,5.8,2.9c2.2,0.7,4.4,1,6.7,1
		c3.7,0,7.2-0.9,10.6-2.7C104.1,111.6,106.1,109.8,107.8,107.5z M92.7,112.3c-2.7,0-5.2-1-7.3-3c-2.1-1.9-3.2-5.2-3.2-9.8
		c0-2.7,0.5-5,1.5-6.8c1-1.8,2.3-3.3,3.8-4.5c1.5-1.2,3.3-2.2,5.3-3c2.1-0.8,4.1-1.6,6.2-2.4c2.1-0.8,4-1.7,5.9-2.7
		c1.2-0.6,2.3-1.4,3.2-2.2v19.5c0,2.2-0.5,4.2-1.3,6c-0.9,1.8-2.1,3.4-3.6,4.7c-1.5,1.3-3.1,2.3-4.9,3
		C96.3,112,94.5,112.3,92.7,112.3z"/>
	<path class="st2" d="M206.6,110c-0.7,1.6-2,2.7-4,3.4l-5.1,1.7h28.6l-5.1-1.7c-2-0.7-3.3-1.8-4.1-3.3c-0.7-1.6-1.1-3.5-1.1-5.7
		V77.3c0-3.6-0.4-6.7-1.3-9.3c-0.9-2.6-2.1-4.8-3.7-6.5c-1.6-1.7-3.4-2.9-5.4-3.7c-2-0.8-4.2-1.2-6.4-1.2c-4.2,0-8.4,1.3-12.5,3.7
		c-3.2,1.9-6,4.4-8.1,7.5l-0.1-31.2c0-2-0.7-3.7-1.9-5c-1.3-1.3-3-1.9-5.2-1.9h-0.9v74.7c0,2.1-0.4,4-1,5.6c-0.7,1.5-2,2.6-4,3.4
		l-4.4,1.7H188l-4.4-1.7c-2-0.8-3.4-1.9-4.1-3.4c-0.7-1.6-1.1-3.5-1.1-5.6V73.6c1.5-3.8,4-6.9,7.4-9.2c3.4-2.3,6.9-3.5,10.3-3.5
		c3.2,0,5.9,1.1,8.2,3.4c2.3,2.3,3.4,6.2,3.4,11.6v28.5C207.7,106.4,207.4,108.3,206.6,110z"/>
	<g>
		<g>
			<path class="st2" d="M328.6,52.8c3.4,0,5.3-1.9,5.3-5.3c0-3.4-1.9-5.3-5.3-5.3c-1.6,0-2.9,0.5-4,1.4c-1,1-1.6,2.3-1.6,3.9
				c0,1.6,0.5,2.9,1.6,3.9C325.7,52.3,327,52.8,328.6,52.8z"/>
			<path class="st2" d="M337.8,113.5c-1.9-0.6-3.1-1.5-3.8-3c-0.7-1.5-1-3.3-1-5.3V64.6c0-2.1-0.7-3.9-2-5.3c-1.3-1.3-3.1-2-5.3-2
				h-0.9v47.8c0,2-0.3,3.8-1,5.4c-0.6,1.4-1.8,2.4-3.7,3l-5.6,1.7h28.9L337.8,113.5z"/>
		</g>
		<path class="st2" d="M385.8,110.1L385.8,110.1c-0.7,1.6-2,2.7-4.1,3.4l-5.1,1.7h28.6l-5.1-1.7c-2-0.7-3.3-1.8-4.1-3.3
			c-0.7-1.6-1.1-3.5-1.1-5.7V77.4c0-3.6-0.4-6.7-1.3-9.3c-0.9-2.6-2.1-4.8-3.7-6.5c-1.6-1.7-3.4-2.9-5.4-3.7c-2-0.8-4.2-1.2-6.4-1.2
			c-4.2,0-8.4,1.3-12.5,3.7c-3.3,2-6,4.5-8.2,7.5v-3.5c0-2.2-0.7-3.9-1.9-5.2c-1.3-1.3-3-1.9-5.2-1.9h-0.9v47.2c0,2.1-0.4,4-1,5.6
			c-0.7,1.5-2,2.6-4,3.4l-4.4,1.7h27.2l-4.4-1.7c-2-0.8-3.4-1.9-4.1-3.4c-0.7-1.6-1.1-3.5-1.1-5.6l-0.2-30.6
			c0.8-1.9,1.8-3.6,3.1-5.2c1.3-1.6,2.8-3,4.4-4.2c1.6-1.2,3.4-2.1,5.1-2.7c1.8-0.6,3.5-0.9,5.2-0.9c3.2,0,5.9,1.1,8.2,3.4
			c2.3,2.3,3.4,6.2,3.4,11.6v28.5C386.9,106.5,386.5,108.4,385.8,110.1z"/>
	</g>
	<path class="st2" d="M66.9,110.4c-1.8-1.5-3.2-3-4.1-4.3L36.1,67.5c-0.2-0.4-0.4-0.8-0.4-1.1c0-0.5,0.2-0.9,0.6-1.3l18.6-20.5
		c1.5-1.6,3.1-3.2,5-4.9c1.7-1.6,3.6-2.7,5.6-3.3l5.7-1.7H42.5l6.3,1.7c1,0.3,1.9,0.9,2.7,1.8c0.8,0.9,1.1,1.8,1.1,2.8
		c0,1-0.4,1.9-1.2,2.7L19.7,78.2c-0.1-0.2-0.3-0.3-0.4-0.5c-2.2-2.5-4.9-4.3-7.9-5.6c3-1.2,5.6-3,7.8-5.4c2.9-3,4.3-6.8,4.3-11.3
		V44.7c0-1.9,0.3-3.6,1-5.1c0.6-1.4,1.9-2.4,3.7-2.9l5.7-2H4l5.7,2.1c1.6,0.5,2.7,1.5,3.5,3c0.8,1.7,1.3,3.4,1.3,5l-0.1,17.1
		c0,0.8-0.2,1.8-0.6,2.8c-0.4,1-0.9,2-1.7,2.9c-0.7,0.9-1.6,1.6-2.6,2.2c-1,0.6-2.1,0.8-3.3,0.8l-0.7,0v3l0.7,0
		c1.2,0,2.3,0.3,3.3,0.8c1,0.6,1.9,1.3,2.6,2.2c0.7,0.9,1.3,1.9,1.7,2.9c0.4,1.1,0.6,2.1,0.6,3l0,23.7c-0.1,1.3-0.5,2.5-0.9,3.6
		c-0.6,1.4-1.9,2.5-3.7,3L4,115l30.1,0l-5.7-2.1c-1.9-0.6-3.1-1.6-3.7-3c-0.7-1.6-1-3.3-1-5.2V89.4c0-0.3,0-0.6,0-0.9v-6.1
		c0-1,0.2-2,0.6-3c0.4-1.1,1-2,1.7-2.9c0.7-0.9,1.4-1.7,2.3-1.9c0,0,0.8-0.2,1.7,0.5c0.5,0.5,2.6,3.4,2.6,3.4l23.8,34.9
		c1.1,1.1,2.2,1.5,3.3,1.5l17,0l-4.8-1.6C70.4,113,68.7,111.9,66.9,110.4z"/>
</g>
<g>
	<path class="st14" d="M165.5,173.5c-1.1,1.5-2.4,2.6-3.9,3.2c-1.5,0.7-3.1,1-4.8,1c-1.8,0-3.4-0.3-4.9-0.9
		c-1.5-0.6-2.7-1.4-3.8-2.5c-1.1-1.1-1.9-2.4-2.5-3.9c-0.6-1.5-0.9-3.1-0.9-4.9c0-1.8,0.3-3.4,0.9-4.9c0.6-1.5,1.4-2.8,2.5-3.9
		c1.1-1.1,2.3-1.9,3.8-2.5c1.5-0.6,3.1-0.9,4.9-0.9c1.6,0,3,0.3,4.4,0.8c1.4,0.6,2.6,1.5,3.6,2.8l-1.8,1.5c-0.7-1.1-1.6-1.9-2.8-2.4
		c-1.1-0.5-2.3-0.8-3.5-0.8c-1.5,0-2.9,0.3-4.1,0.8c-1.2,0.5-2.2,1.2-3.1,2.2c-0.9,0.9-1.5,2-2,3.2c-0.5,1.2-0.7,2.6-0.7,4
		s0.2,2.8,0.7,4c0.5,1.2,1.1,2.3,2,3.2c0.9,0.9,1.9,1.6,3.1,2.2s2.6,0.8,4.1,0.8c0.6,0,1.2-0.1,1.8-0.2c0.6-0.1,1.3-0.4,1.9-0.7
		c0.6-0.3,1.2-0.7,1.7-1.1c0.5-0.4,1-1,1.4-1.6L165.5,173.5z"/>
	<path class="st14" d="M194.1,168.2c0,1.2-0.1,2.4-0.4,3.6c-0.3,1.1-0.8,2.1-1.4,3s-1.5,1.6-2.6,2.1c-1.1,0.5-2.4,0.8-4,0.8
		c-1.6,0-2.9-0.3-4-0.8c-1.1-0.5-2-1.2-2.6-2.1c-0.7-0.9-1.1-1.9-1.4-3c-0.3-1.1-0.4-2.3-0.4-3.6v-14.3h2.2v13.8
		c0,0.8,0.1,1.7,0.2,2.7c0.2,0.9,0.5,1.8,0.9,2.6c0.4,0.8,1.1,1.5,1.9,2c0.8,0.5,1.9,0.8,3.3,0.8c1.4,0,2.4-0.3,3.3-0.8
		c0.8-0.5,1.5-1.2,1.9-2s0.7-1.7,0.9-2.6c0.2-0.9,0.2-1.8,0.2-2.7v-13.8h2.2V168.2z"/>
	<path class="st14" d="M208.1,153.9h6.1c0.3,0,0.7,0,1.2,0c0.5,0,1.1,0.1,1.7,0.2c0.6,0.1,1.2,0.3,1.9,0.5c0.6,0.2,1.2,0.6,1.7,1
		c0.5,0.5,0.9,1,1.2,1.7c0.3,0.7,0.5,1.6,0.5,2.6c0,1.1-0.2,2-0.6,2.8c-0.4,0.7-0.9,1.3-1.4,1.8c-0.6,0.4-1.2,0.8-1.9,1
		c-0.7,0.2-1.4,0.4-2,0.5l6.8,11.2h-2.5l-6.5-11h-4v11h-2.2V153.9z M210.3,164.1h4.6c1.1,0,2.1-0.1,2.8-0.4c0.7-0.3,1.3-0.6,1.7-1
		c0.4-0.4,0.7-0.9,0.8-1.3c0.1-0.5,0.2-0.9,0.2-1.3c0-0.4-0.1-0.8-0.2-1.3c-0.1-0.5-0.4-0.9-0.8-1.3c-0.4-0.4-0.9-0.8-1.7-1.1
		c-0.7-0.3-1.6-0.4-2.8-0.4h-4.6V164.1z"/>
	<path class="st14" d="M241,155.8h-7.9v-2h18v2h-7.9v21.3H241V155.8z"/>
	<path class="st14" d="M267.7,153.9h2.2l9.8,23.2h-2.4l-2.5-6.2h-12.3l-2.6,6.2h-2.3L267.7,153.9z M268.7,156.2l-5.4,12.7H274
		L268.7,156.2z"/>
	<path class="st14" d="M291.2,153.9h2.2v23.2h-2.2V153.9z"/>
	<path class="st14" d="M307.8,153.9h2.8l14.1,20.3h0.1v-20.3h2.2v23.2h-2.8L310,156.8H310v20.3h-2.2V153.9z"/>
	<path class="st14" d="M342.1,172.8c0.6,1,1.3,1.7,2.2,2.2c0.9,0.5,1.9,0.7,3.1,0.7c0.7,0,1.4-0.1,2-0.3c0.6-0.2,1.2-0.5,1.7-0.9
		c0.5-0.4,0.8-0.9,1.1-1.4c0.3-0.6,0.4-1.2,0.4-1.9c0-0.8-0.2-1.5-0.5-2c-0.3-0.5-0.8-1-1.4-1.3c-0.6-0.3-1.2-0.6-1.9-0.9
		c-0.7-0.2-1.4-0.5-2.2-0.7c-0.8-0.2-1.5-0.5-2.2-0.8c-0.7-0.3-1.4-0.7-1.9-1.2c-0.6-0.5-1-1.1-1.4-1.9c-0.3-0.7-0.5-1.7-0.5-2.8
		c0-1,0.2-1.9,0.6-2.7s1-1.5,1.6-2c0.7-0.5,1.5-0.9,2.4-1.2c0.9-0.3,1.8-0.4,2.8-0.4c1.3,0,2.4,0.2,3.5,0.7c1.1,0.4,2,1.2,2.8,2.2
		l-1.9,1.3c-0.5-0.8-1.2-1.3-1.9-1.7c-0.7-0.4-1.6-0.6-2.6-0.6c-0.7,0-1.4,0.1-2,0.3c-0.6,0.2-1.2,0.5-1.7,0.8
		c-0.5,0.4-0.8,0.8-1.1,1.4c-0.3,0.5-0.4,1.2-0.4,1.9c0,1.2,0.3,2.1,0.9,2.7c0.6,0.6,1.3,1.1,2.2,1.5c0.9,0.4,1.8,0.7,2.9,1
		c1,0.3,2,0.6,2.9,1.1c0.9,0.5,1.6,1.1,2.2,1.9c0.6,0.8,0.9,2,0.9,3.4c0,1.1-0.2,2-0.6,2.8c-0.4,0.8-0.9,1.5-1.6,2.1
		c-0.7,0.6-1.4,1-2.3,1.3c-0.9,0.3-1.8,0.4-2.7,0.4c-1.5,0-2.9-0.3-4.2-0.8c-1.3-0.5-2.4-1.4-3.3-2.7L342.1,172.8z"/>
	<path class="st14" d="M391.5,153.9h2.2l9.8,23.2h-2.4l-2.5-6.2h-12.3l-2.6,6.2h-2.3L391.5,153.9z M392.6,156.2l-5.4,12.7h10.7
		L392.6,156.2z"/>
	<path class="st14" d="M415,153.9h2.8l14.1,20.3h0.1v-20.3h2.2v23.2h-2.8l-14.1-20.3h-0.1v20.3H415V153.9z"/>
	<path class="st14" d="M448.3,153.9h7.2c2,0,3.7,0.2,5.1,0.7c1.4,0.5,2.6,1.1,3.5,1.9c0.9,0.8,1.7,1.6,2.2,2.5
		c0.5,0.9,0.9,1.8,1.2,2.7s0.4,1.6,0.5,2.3c0.1,0.7,0.1,1.2,0.1,1.5c0,0.3,0,0.8-0.1,1.5c-0.1,0.7-0.2,1.5-0.5,2.3s-0.6,1.7-1.2,2.7
		c-0.5,0.9-1.3,1.8-2.2,2.5c-0.9,0.8-2.1,1.4-3.5,1.9c-1.4,0.5-3.1,0.7-5.1,0.7h-7.2V153.9z M450.5,175.1h4.5c1.5,0,3-0.2,4.3-0.6
		c1.3-0.4,2.5-1,3.5-1.8c1-0.8,1.8-1.8,2.3-3c0.6-1.2,0.9-2.7,0.9-4.3c0-1.7-0.3-3.1-0.9-4.3c-0.6-1.2-1.3-2.2-2.3-3
		c-1-0.8-2.1-1.4-3.5-1.8c-1.3-0.4-2.8-0.6-4.3-0.6h-4.5V175.1z"/>
	<path class="st14" d="M497.7,153.9h6.7c0.9,0,1.8,0.1,2.7,0.2c0.9,0.1,1.7,0.4,2.4,0.9c0.7,0.4,1.3,1.1,1.7,1.9
		c0.4,0.8,0.7,1.9,0.7,3.2c0,1.2-0.4,2.2-1.1,3.1c-0.7,0.9-1.7,1.5-3.1,1.7v0.1c0.8,0.1,1.5,0.2,2.1,0.5c0.6,0.3,1.2,0.7,1.6,1.2
		c0.5,0.5,0.8,1.1,1.1,1.8s0.4,1.4,0.4,2.2c0,1.3-0.3,2.4-0.8,3.3c-0.5,0.8-1.2,1.5-1.9,2c-0.8,0.5-1.6,0.8-2.5,1
		c-0.9,0.2-1.8,0.3-2.5,0.3h-7.4V153.9z M499.8,163.9h4.5c1.1,0,2-0.1,2.7-0.4c0.7-0.3,1.2-0.6,1.6-1c0.4-0.4,0.7-0.8,0.8-1.3
		c0.1-0.4,0.2-0.9,0.2-1.2c0-0.8-0.1-1.5-0.4-2c-0.3-0.5-0.6-1-1.1-1.3c-0.5-0.3-1-0.5-1.6-0.7c-0.6-0.1-1.3-0.2-1.9-0.2h-4.8V163.9
		z M499.8,175.1h5c1.3,0,2.3-0.2,3.1-0.5c0.8-0.3,1.4-0.7,1.8-1.1c0.4-0.5,0.7-0.9,0.8-1.5c0.1-0.5,0.2-1,0.2-1.4
		c0-0.9-0.2-1.6-0.5-2.2c-0.3-0.6-0.8-1.1-1.3-1.5c-0.5-0.4-1.1-0.7-1.8-0.8c-0.7-0.2-1.3-0.3-2-0.3h-5.3V175.1z"/>
	<path class="st14" d="M526.5,153.9h2.2v21.3h10.8v2h-13V153.9z"/>
	<path class="st14" d="M551,153.9h2.2v23.2H551V153.9z"/>
	<path class="st14" d="M567.6,153.9h2.8l14.1,20.3h0.1v-20.3h2.2v23.2H584l-14.1-20.3h-0.1v20.3h-2.2V153.9z"/>
	<path class="st14" d="M600.9,153.9h7.2c2,0,3.7,0.2,5.1,0.7c1.4,0.5,2.6,1.1,3.5,1.9c0.9,0.8,1.7,1.6,2.2,2.5
		c0.5,0.9,0.9,1.8,1.2,2.7s0.4,1.6,0.5,2.3c0.1,0.7,0.1,1.2,0.1,1.5c0,0.3,0,0.8-0.1,1.5c-0.1,0.7-0.2,1.5-0.5,2.3s-0.6,1.7-1.2,2.7
		c-0.5,0.9-1.3,1.8-2.2,2.5c-0.9,0.8-2.1,1.4-3.5,1.9c-1.4,0.5-3.1,0.7-5.1,0.7h-7.2V153.9z M603.1,175.1h4.5c1.5,0,3-0.2,4.3-0.6
		s2.5-1,3.5-1.8c1-0.8,1.8-1.8,2.3-3c0.6-1.2,0.9-2.7,0.9-4.3c0-1.7-0.3-3.1-0.9-4.3c-0.6-1.2-1.3-2.2-2.3-3c-1-0.8-2.1-1.4-3.5-1.8
		c-1.3-0.4-2.8-0.6-4.3-0.6h-4.5V175.1z"/>
	<path class="st14" d="M634.3,172.8c0.6,1,1.3,1.7,2.2,2.2c0.9,0.5,1.9,0.7,3.1,0.7c0.7,0,1.4-0.1,2-0.3c0.6-0.2,1.2-0.5,1.7-0.9
		c0.5-0.4,0.8-0.9,1.1-1.4c0.3-0.6,0.4-1.2,0.4-1.9c0-0.8-0.2-1.5-0.5-2c-0.3-0.5-0.8-1-1.4-1.3c-0.6-0.3-1.2-0.6-1.9-0.9
		c-0.7-0.2-1.4-0.5-2.2-0.7c-0.8-0.2-1.5-0.5-2.2-0.8c-0.7-0.3-1.4-0.7-1.9-1.2c-0.6-0.5-1-1.1-1.4-1.9c-0.3-0.7-0.5-1.7-0.5-2.8
		c0-1,0.2-1.9,0.6-2.7c0.4-0.8,1-1.5,1.6-2c0.7-0.5,1.5-0.9,2.4-1.2c0.9-0.3,1.8-0.4,2.8-0.4c1.3,0,2.4,0.2,3.5,0.7s2,1.2,2.8,2.2
		l-1.9,1.3c-0.5-0.8-1.2-1.3-1.9-1.7c-0.7-0.4-1.6-0.6-2.6-0.6c-0.7,0-1.4,0.1-2,0.3c-0.6,0.2-1.2,0.5-1.7,0.8
		c-0.5,0.4-0.8,0.8-1.1,1.4c-0.3,0.5-0.4,1.2-0.4,1.9c0,1.2,0.3,2.1,0.9,2.7s1.3,1.1,2.2,1.5c0.9,0.4,1.8,0.7,2.9,1
		c1,0.3,2,0.6,2.9,1.1c0.9,0.5,1.6,1.1,2.2,1.9c0.6,0.8,0.9,2,0.9,3.4c0,1.1-0.2,2-0.6,2.8c-0.4,0.8-0.9,1.5-1.6,2.1
		c-0.7,0.6-1.4,1-2.3,1.3c-0.9,0.3-1.8,0.4-2.7,0.4c-1.5,0-2.9-0.3-4.2-0.8c-1.3-0.5-2.4-1.4-3.3-2.7L634.3,172.8z"/>
</g>
</svg>
